<svg width="304" height="171" viewBox="0 0 304 171" fill="none" xmlns="http://www.w3.org/2000/svg">
<g clip-path="url(#clip0_1456_1333)">
<rect width="304" height="171" rx="5.25904" fill="white"/>
<g filter="url(#filter0_di_1456_1333)">
<path d="M0 2.19127C0 0.981063 0.981064 0 2.19127 0H301.809C303.019 0 304 0.981064 304 2.19127V20H0V2.19127Z" fill="white"/>
<g filter="url(#filter1_i_1456_1333)">
<path fill-rule="evenodd" clip-rule="evenodd" d="M7 12C8.10457 12 9 11.1046 9 10C9 8.89543 8.10457 8 7 8C5.89543 8 5 8.89543 5 10C5 11.1046 5.89543 12 7 12Z" fill="#EE6A5F"/>
</g>
<path d="M7 8.05469C8.07431 8.05469 8.94531 8.92569 8.94531 10C8.94531 11.0743 8.07431 11.9453 7 11.9453C5.92569 11.9453 5.05469 11.0743 5.05469 10C5.05469 8.92569 5.92569 8.05469 7 8.05469Z" stroke="#CE5347" stroke-width="0.109563"/>
<g filter="url(#filter2_i_1456_1333)">
<path fill-rule="evenodd" clip-rule="evenodd" d="M13 12C14.1046 12 15 11.1046 15 10C15 8.89543 14.1046 8 13 8C11.8954 8 11 8.89543 11 10C11 11.1046 11.8954 12 13 12Z" fill="#F5BD4F"/>
</g>
<path d="M13 8.05469C14.0743 8.05469 14.9453 8.92569 14.9453 10C14.9453 11.0743 14.0743 11.9453 13 11.9453C11.9257 11.9453 11.0547 11.0743 11.0547 10C11.0547 8.92569 11.9257 8.05469 13 8.05469Z" stroke="#D6A243" stroke-width="0.109563"/>
<g filter="url(#filter3_i_1456_1333)">
<path fill-rule="evenodd" clip-rule="evenodd" d="M19 12C20.1046 12 21 11.1046 21 10C21 8.89543 20.1046 8 19 8C17.8954 8 17 8.89543 17 10C17 11.1046 17.8954 12 19 12Z" fill="#61C454"/>
</g>
<path d="M19 8.05469C20.0743 8.05469 20.9453 8.92569 20.9453 10C20.9453 11.0743 20.0743 11.9453 19 11.9453C17.9257 11.9453 17.0547 11.0743 17.0547 10C17.0547 8.92569 17.9257 8.05469 19 8.05469Z" stroke="#58A942" stroke-width="0.109563"/>
</g>
<rect x="9.98047" y="34.9717" width="85.4635" height="5.61439" rx="1" fill="#DCDCDC"/>
<rect x="74.0215" y="55.5579" width="155.955" height="105.461" rx="2" fill="#6BC0F4" fill-opacity="0.4"/>
<rect x="121.275" y="65.5389" width="17.1551" height="3.11911" rx="1" fill="#1996DE"/>
<rect x="143.422" y="65.5389" width="17.1551" height="3.11911" rx="1" fill="#1996DE"/>
<rect x="165.566" y="65.5389" width="17.1551" height="3.11911" rx="1" fill="#1996DE"/>
<rect x="82.5215" y="74.1487" width="138.955" height="68.2794" rx="0.5" fill="white"/>
<rect x="82.5215" y="74.1487" width="138.955" height="68.2794" rx="0.5" stroke="#DCDCDC"/>
<path d="M153.768 106.965V106.549C153.768 105.403 152.835 104.47 151.688 104.47C150.542 104.47 149.609 105.403 149.609 106.549V107.797H149.193C148.734 107.797 148.361 108.17 148.361 108.629V111.956C148.361 112.414 148.734 112.787 149.193 112.787H154.184C154.642 112.787 155.015 112.414 155.015 111.956V108.629C155.015 108.17 154.642 107.797 154.184 107.797H150.441V106.549C150.441 105.861 151.001 105.302 151.688 105.302C152.376 105.302 152.936 105.861 152.936 106.549V106.965H153.768ZM154.184 108.629L154.184 111.956H149.193V108.629H154.184Z" fill="#BDBDBD"/>
<rect x="82.0215" y="147.919" width="32.7506" height="3.11911" rx="1" fill="#1996DE"/>
<rect x="206.381" y="147.919" width="15.5955" height="3.11911" rx="1" fill="#1996DE"/>
</g>
<defs>
<filter id="filter0_di_1456_1333" x="0" y="0" width="304" height="20.1096" filterUnits="userSpaceOnUse" color-interpolation-filters="sRGB">
<feFlood flood-opacity="0" result="BackgroundImageFix"/>
<feColorMatrix in="SourceAlpha" type="matrix" values="0 0 0 0 0 0 0 0 0 0 0 0 0 0 0 0 0 0 127 0" result="hardAlpha"/>
<feOffset dy="0.109563"/>
<feColorMatrix type="matrix" values="0 0 0 0 0 0 0 0 0 0 0 0 0 0 0 0 0 0 0.15 0"/>
<feBlend mode="normal" in2="BackgroundImageFix" result="effect1_dropShadow_1456_1333"/>
<feBlend mode="normal" in="SourceGraphic" in2="effect1_dropShadow_1456_1333" result="shape"/>
<feColorMatrix in="SourceAlpha" type="matrix" values="0 0 0 0 0 0 0 0 0 0 0 0 0 0 0 0 0 0 127 0" result="hardAlpha"/>
<feOffset dy="-0.109563"/>
<feComposite in2="hardAlpha" operator="arithmetic" k2="-1" k3="1"/>
<feColorMatrix type="matrix" values="0 0 0 0 0 0 0 0 0 0 0 0 0 0 0 0 0 0 0.05 0"/>
<feBlend mode="normal" in2="shape" result="effect2_innerShadow_1456_1333"/>
</filter>
<filter id="filter1_i_1456_1333" x="5" y="8" width="4" height="4" filterUnits="userSpaceOnUse" color-interpolation-filters="sRGB">
<feFlood flood-opacity="0" result="BackgroundImageFix"/>
<feBlend mode="normal" in="SourceGraphic" in2="BackgroundImageFix" result="shape"/>
<feColorMatrix in="SourceAlpha" type="matrix" values="0 0 0 0 0 0 0 0 0 0 0 0 0 0 0 0 0 0 127 0" result="hardAlpha"/>
<feOffset/>
<feGaussianBlur stdDeviation="0.65738"/>
<feComposite in2="hardAlpha" operator="arithmetic" k2="-1" k3="1"/>
<feColorMatrix type="matrix" values="0 0 0 0 0.92549 0 0 0 0 0.427451 0 0 0 0 0.384314 0 0 0 1 0"/>
<feBlend mode="normal" in2="shape" result="effect1_innerShadow_1456_1333"/>
</filter>
<filter id="filter2_i_1456_1333" x="11" y="8" width="4" height="4" filterUnits="userSpaceOnUse" color-interpolation-filters="sRGB">
<feFlood flood-opacity="0" result="BackgroundImageFix"/>
<feBlend mode="normal" in="SourceGraphic" in2="BackgroundImageFix" result="shape"/>
<feColorMatrix in="SourceAlpha" type="matrix" values="0 0 0 0 0 0 0 0 0 0 0 0 0 0 0 0 0 0 127 0" result="hardAlpha"/>
<feOffset/>
<feGaussianBlur stdDeviation="0.65738"/>
<feComposite in2="hardAlpha" operator="arithmetic" k2="-1" k3="1"/>
<feColorMatrix type="matrix" values="0 0 0 0 0.960784 0 0 0 0 0.768627 0 0 0 0 0.317647 0 0 0 1 0"/>
<feBlend mode="normal" in2="shape" result="effect1_innerShadow_1456_1333"/>
</filter>
<filter id="filter3_i_1456_1333" x="17" y="8" width="4" height="4" filterUnits="userSpaceOnUse" color-interpolation-filters="sRGB">
<feFlood flood-opacity="0" result="BackgroundImageFix"/>
<feBlend mode="normal" in="SourceGraphic" in2="BackgroundImageFix" result="shape"/>
<feColorMatrix in="SourceAlpha" type="matrix" values="0 0 0 0 0 0 0 0 0 0 0 0 0 0 0 0 0 0 127 0" result="hardAlpha"/>
<feOffset/>
<feGaussianBlur stdDeviation="0.65738"/>
<feComposite in2="hardAlpha" operator="arithmetic" k2="-1" k3="1"/>
<feColorMatrix type="matrix" values="0 0 0 0 0.407843 0 0 0 0 0.8 0 0 0 0 0.345098 0 0 0 1 0"/>
<feBlend mode="normal" in2="shape" result="effect1_innerShadow_1456_1333"/>
</filter>
<clipPath id="clip0_1456_1333">
<rect width="304" height="171" rx="5.25904" fill="white"/>
</clipPath>
</defs>
</svg>
